<?xml version="1.0" encoding="UTF-8"?>
<!DOCTYPE svg PUBLIC "-//W3C//DTD SVG 1.1//EN" "http://www.w3.org/Graphics/SVG/1.1/DTD/svg11.dtd">
<!-- Creator: CorelDRAW 2021.5 -->
<svg xmlns="http://www.w3.org/2000/svg" xml:space="preserve" width="55mm" height="55mm" version="1.1" style="shape-rendering:geometricPrecision; text-rendering:geometricPrecision; image-rendering:optimizeQuality; fill-rule:evenodd; clip-rule:evenodd"
viewBox="0 0 5500 5500"
 xmlns:xlink="http://www.w3.org/1999/xlink"
 xmlns:xodm="http://www.corel.com/coreldraw/odm/2003">
  <metadata id="CorelCorpID_0Corel-Layer"/>
  <rect style="fill:none" x="-13.25" y="-3.79" width="5512.33" height="5512.33"/>
  <path style="fill:#FEFEFE" d="M1890.05 883.76c-18.55,-250.89 -126.03,-385.23 -413.52,-454.2 -84.92,-20.35 -105.3,-23.02 -365.45,-29.28l6.83 314.2c408.03,-0.28 511.81,356.43 219.99,494.71 227.03,10.1 288.41,54.83 371.46,101.32 150.7,-102.31 178.86,-253.32 180.69,-426.75z"/>
  <path style="fill:#FEFEFE" d="M1856.47 1736.49c-18.55,-250.9 -126.02,-385.23 -413.52,-454.21 -84.92,-20.34 -34.66,-18.58 -294.81,-24.84l6.83 314.2c286.82,-9.11 391.34,278.7 230.97,434.5 -22.07,21.46 -631.19,369.07 -663.57,384.41l-2.85 394.06c31.08,-21.08 1013.25,-665.65 1034.68,-690.6 82.74,-96.25 100.83,-219.85 102.27,-357.52z"/>
  <polygon style="fill:#FEFEFE" points="733.32,382.19 1038.69,382.19 1038.69,2096.9 716.77,2268.74 "/>
  <path style="fill:#FEFEFE" d="M2519.21 1547.26l-241.34 717.41 -323.62 2.68c-13.75,0.09 417.89,-1215.63 469.49,-1346.39 12.88,-32.73 28.32,-72.18 46.37,-118.14 18.05,-46.34 37.3,-84.48 57.82,-114.86 20.53,-30.35 47.15,-54.97 80.41,-73.84 33.23,-18.87 74.25,-28.34 123.06,-28.34 50.06,0 91.48,9.47 124.71,28.34 33.23,18.87 59.89,43.08 80.41,72.59 20.53,29.57 37.74,61.57 51.66,95.59 13.96,34.07 32.1,79.59 53.32,136.19l506.26 1352.32 -332.3 1.42c-26.69,0.09 -199.08,-523.56 -221.29,-583.74l0.61 0 -41.37 -113.14 -224.08 -612.96 -210.12 584.87z"/>
  <polygon style="fill:#FEFEFE" points="3566.56,2771.45 3877.34,3000.23 3971.47,5064.17 3669.34,5064.17 "/>
  <polygon style="fill:#FEFEFE" points="4478.2,3359.73 4783.57,3519.27 4783.57,5068.18 4478.2,5065.91 "/>
  <polygon style="fill:#FEFEFE" points="3585.63,3134.11 3877.35,3000.23 4783.57,5068.18 4452.12,5068.14 "/>

  <polyline style="fill:none;stroke:#FEFEFE;stroke-width:282.22;stroke-miterlimit:22.9256" points="2201.35,2148.98 465.2,3309.5 456.85,3800.48 "/>
  <polyline style="fill:none;stroke:#FEFEFE;stroke-width:282.22;stroke-miterlimit:22.9256" points="3284.48,2152.33 5020.63,3312.85 5028.98,3803.83 "/>

  <polygon style="fill:#FEFEFE" points="724.11,3537.19 1018.03,3334.7 1012.48,5091.87 707.12,5091.87 "/>
  <polygon style="fill:#FEFEFE" points="1481.01,3073.34 1823.36,2835.06 1803.71,5067.28 1497.92,5068.36 "/>
  <rect style="fill:#FEFEFE" transform="matrix(4.59911E-14 -3.51931 1.73652 9.32072E-14 862.565 4387.22)" width="86.77" height="487.23"/>
  <path style="fill:#FEFEFE" d="M3598.97 880.89c18.55,-250.89 126.03,-385.22 413.52,-454.2 84.92,-20.34 105.3,-23.01 365.44,-29.28l-6.82 314.21c-408.03,-0.29 -511.82,356.43 -219.99,494.7 -227.04,10.1 -288.41,54.83 -371.47,101.33 -150.69,-102.31 -178.85,-253.32 -180.68,-426.76z"/>
  <path style="fill:#FEFEFE" d="M3632.55 1733.62c18.54,-250.89 126.02,-385.22 413.51,-454.2 84.92,-20.34 34.67,-18.58 294.82,-24.85l-6.83 314.21c-286.82,-9.12 -391.24,278.8 -230.97,434.49 21.96,21.36 605.63,394.52 638.01,409.86l-5.98 345.7c-31.04,-21.08 -978.86,-642.73 -1000.29,-667.68 -82.74,-96.25 -100.83,-219.85 -102.27,-357.53z"/>
  <polygon style="fill:#FEFEFE" points="4755.7,379.32 4450.33,379.32 4450.33,2094.03 4772.25,2265.88 "/>
  <path style="fill:#FEFEFE;stroke:#FEFEFE;stroke-width:17.64;stroke-miterlimit:22.9256" d="M2505.19 4684.24l-237.36 379.38 -324.73 -0.37c-13.75,-0.02 415.05,-645.46 466.62,-715.75 12.91,-17.59 28.31,-38.81 46.37,-63.52 18.05,-24.92 37.3,-45.43 57.82,-61.76 20.52,-16.32 47.15,-29.56 80.41,-39.7 33.23,-10.15 74.25,-15.24 123.06,-15.24 50.06,0 91.48,5.09 124.71,15.24 33.23,10.14 59.89,23.16 80.41,39.03 20.52,15.89 37.73,33.12 51.66,51.39 13.95,18.32 31.92,42.94 53.31,73.23l509.99 721.8c-114.42,0.84 -232.3,-2.57 -346.72,-1.72 -29.31,-34.31 -188.38,-273.72 -210.59,-306.08l0.61 0 -41.37 -60.83 -224.08 -329.57 -210.12 314.47z"/>
</svg>
